# xmcd CD database file
#
# Track frame offsets:
#	150
#	31937
#	57117
#	78637
#	110582
#	133412
#	164787
#	196287
#	222105
#	240010
#	271587
#
# Disc length: 4005 seconds
#
# Revision: 0
# Processed by: cddbd v1.5PL3 Copyright (c) Steve Scherf et al.
# Submitted via: CDex 1.51
#
DISCID=950fa30b
DTITLE=keiko yamami - YESTERDAY'S DREAM
DYEAR=1997
DGENRE=Jazz
TTITLE0=I'LL BE SEEING YOU
TTITLE1=MY ONE AND ONLY LOVE
TTITLE2=CLOUDS
TTITLE3=FLY ME TO THE MOON
TTITLE4=THE WEDDING
TTITLE5=SMOKE GETS IN YOUR EYES - MY FUNNY VALENTINE - REMEMBER
TTITLE6=K'S BLUES
TTITLE7=THE SHADOW OF YOUR SMILE
TTITLE8=THE CHRISTMAS SONG
TTITLE9=AUTUMN LEAVES
TTITLE10=YESTERDAY'S DREAM
EXTD=YEAR: 1997
EXTT0=
EXTT1=
EXTT2=
EXTT3=
EXTT4=
EXTT5=
EXTT6=
EXTT7=
EXTT8=
EXTT9=
EXTT10=
PLAYORDER=
